<?xml version="1.0" encoding="UTF-8"?>
<svg xmlns="http://www.w3.org/2000/svg" xmlns:xlink="http://www.w3.org/1999/xlink" width="24pt" height="24pt" viewBox="0 0 24 24" version="1.1">
<g id="surface1">
<path style=" stroke:none;fill-rule:nonzero;fill:rgb(100%,100%,100%);fill-opacity:1;" d="M 17.660156 15.503906 L 17.683594 7.621094 C 17.683594 7.59375 17.695312 7.566406 17.714844 7.546875 L 19.109375 6.289062 L 15.074219 6.222656 L 12.492188 12.835938 C 12.476562 12.871094 12.445312 12.898438 12.40625 12.898438 C 12.367188 12.898438 12.332031 12.878906 12.316406 12.84375 L 9.28125 6.160156 L 5.128906 6.085938 L 6.589844 8.179688 L 6.589844 8.214844 L 6.566406 14.890625 C 6.566406 15.089844 6.507812 15.285156 6.394531 15.445312 L 5.109375 17.277344 L 9.339844 17.371094 L 7.644531 15.351562 C 7.496094 15.175781 7.417969 14.949219 7.417969 14.71875 L 7.464844 9.75 C 7.464844 9.703125 7.5 9.664062 7.542969 9.65625 C 7.585938 9.648438 7.632812 9.667969 7.648438 9.710938 L 10.972656 17.179688 C 11.027344 17.300781 11.148438 17.378906 11.277344 17.378906 C 11.414062 17.378906 11.539062 17.296875 11.589844 17.171875 L 14.664062 9.726562 C 14.679688 9.683594 14.726562 9.660156 14.769531 9.671875 C 14.816406 9.679688 14.847656 9.71875 14.847656 9.765625 L 14.75 15.523438 C 14.746094 15.773438 14.640625 16.011719 14.460938 16.1875 L 13.25 17.378906 L 19.125 17.378906 L 17.9375 16.175781 C 17.761719 15.996094 17.660156 15.753906 17.660156 15.503906 Z M 17.660156 15.503906 "/>
<path style=" stroke:none;fill-rule:nonzero;fill:rgb(68.627451%,62.352941%,100%);fill-opacity:1;" d="M 12 0 C 5.375 0.0078125 0.00390625 5.378906 0 12.003906 C 0.0117188 18.625 5.378906 23.988281 12 23.996094 C 18.621094 23.988281 23.988281 18.625 24 12.003906 C 23.996094 5.378906 18.625 0.0078125 12 0 Z M 13.246094 17.378906 L 14.457031 16.1875 C 14.640625 16.011719 14.742188 15.773438 14.746094 15.523438 L 14.84375 9.765625 C 14.84375 9.71875 14.8125 9.679688 14.769531 9.671875 C 14.722656 9.660156 14.675781 9.683594 14.660156 9.726562 L 11.585938 17.171875 C 11.535156 17.296875 11.414062 17.378906 11.277344 17.378906 C 11.144531 17.378906 11.023438 17.300781 10.96875 17.179688 L 7.648438 9.710938 C 7.628906 9.667969 7.582031 9.648438 7.539062 9.65625 C 7.496094 9.664062 7.460938 9.703125 7.464844 9.75 L 7.414062 14.71875 C 7.414062 14.949219 7.492188 15.175781 7.640625 15.351562 L 9.339844 17.371094 L 5.105469 17.277344 L 6.390625 15.445312 C 6.503906 15.285156 6.566406 15.089844 6.566406 14.890625 L 6.582031 8.210938 L 6.582031 8.175781 L 5.113281 6.078125 L 9.269531 6.152344 L 12.304688 12.835938 C 12.316406 12.871094 12.355469 12.894531 12.394531 12.890625 C 12.429688 12.890625 12.464844 12.867188 12.476562 12.832031 L 15.066406 6.21875 L 19.101562 6.28125 L 17.707031 7.542969 C 17.6875 7.5625 17.675781 7.585938 17.675781 7.613281 L 17.65625 15.496094 C 17.652344 15.75 17.753906 15.988281 17.929688 16.167969 L 19.117188 17.375 Z M 13.246094 17.378906 "/>
</g>
</svg>
