<?xml version="1.0" encoding="UTF-8"?>
<svg xmlns="http://www.w3.org/2000/svg" xmlns:xlink="http://www.w3.org/1999/xlink" width="24pt" height="24pt" viewBox="0 0 24 24" version="1.1">
<g id="surface1">
<path style=" stroke:none;fill-rule:nonzero;fill:rgb(68.627451%,62.352941%,100%);fill-opacity:1;" d="M 12 0 C 5.367188 -0.00390625 -0.0117188 5.367188 -0.0195312 12 C -0.015625 18.625 5.355469 23.996094 11.980469 24 C 18.605469 23.996094 23.976562 18.625 23.980469 12 C 23.972656 5.382812 18.617188 0.0195312 12 0 Z M 18.738281 6.722656 L 16.355469 17.21875 C 16.328125 17.34375 16.246094 17.453125 16.125 17.507812 C 16.070312 17.53125 16.007812 17.542969 15.945312 17.546875 C 15.878906 17.542969 15.8125 17.527344 15.753906 17.496094 L 12.242188 15.652344 L 10.425781 17.269531 C 10.296875 17.382812 10.109375 17.40625 9.953125 17.328125 C 9.800781 17.246094 9.710938 17.078125 9.734375 16.90625 L 10.074219 13.984375 C 10.101562 13.796875 10.1875 13.621094 10.328125 13.488281 L 13.484375 10.476562 L 9.476562 13.082031 C 9.371094 13.152344 9.242188 13.171875 9.121094 13.132812 L 5.546875 11.988281 C 5.375 11.941406 5.257812 11.785156 5.253906 11.609375 C 5.246094 11.429688 5.351562 11.269531 5.515625 11.207031 L 18.179688 6.242188 C 18.324219 6.183594 18.488281 6.214844 18.601562 6.316406 C 18.71875 6.414062 18.769531 6.570312 18.738281 6.71875 Z M 18.738281 6.722656 "/>
<path style=" stroke:none;fill-rule:nonzero;fill:rgb(100%,100%,100%);fill-opacity:1;" d="M 18.179688 6.222656 L 5.515625 11.1875 C 5.351562 11.25 5.246094 11.410156 5.253906 11.589844 C 5.257812 11.765625 5.375 11.921875 5.546875 11.96875 L 9.121094 13.113281 C 9.242188 13.152344 9.371094 13.132812 9.476562 13.0625 L 13.484375 10.457031 L 10.328125 13.46875 C 10.1875 13.601562 10.101562 13.777344 10.074219 13.964844 L 9.734375 16.886719 C 9.710938 17.058594 9.800781 17.226562 9.953125 17.308594 C 10.109375 17.386719 10.296875 17.363281 10.425781 17.246094 L 12.242188 15.632812 L 15.753906 17.476562 C 15.8125 17.507812 15.878906 17.523438 15.945312 17.527344 C 16.007812 17.523438 16.070312 17.511719 16.125 17.484375 C 16.246094 17.433594 16.328125 17.324219 16.355469 17.199219 L 18.738281 6.703125 C 18.773438 6.550781 18.722656 6.394531 18.601562 6.296875 C 18.488281 6.195312 18.324219 6.164062 18.179688 6.222656 Z M 18.179688 6.222656 "/>
</g>
</svg>
