<?xml version="1.0" encoding="UTF-8"?>
<svg xmlns="http://www.w3.org/2000/svg" xmlns:xlink="http://www.w3.org/1999/xlink" width="24pt" height="24pt" viewBox="0 0 24 24" version="1.1">
<g id="surface1">
<path style=" stroke:none;fill-rule:nonzero;fill:rgb(68.627451%,62.352941%,100%);fill-opacity:1;" d="M 15.644531 11.710938 C 15.65625 11.726562 15.667969 11.746094 15.679688 11.769531 C 15.667969 11.746094 15.65625 11.726562 15.644531 11.710938 Z M 15.644531 11.710938 "/>
<path style=" stroke:none;fill-rule:nonzero;fill:rgb(68.627451%,62.352941%,100%);fill-opacity:1;" d="M 8.613281 5.878906 L 15.59375 11.648438 L 8.613281 5.878906 L 8.578125 5.859375 C 8.515625 5.824219 8.449219 5.835938 8.390625 5.878906 L 8.363281 5.914062 C 8.375 5.898438 8.382812 5.886719 8.394531 5.878906 C 8.464844 5.824219 8.546875 5.824219 8.613281 5.878906 Z M 8.613281 5.878906 "/>
<path style=" stroke:none;fill-rule:nonzero;fill:rgb(68.627451%,62.352941%,100%);fill-opacity:1;" d="M 21.738281 0.195312 C 21.457031 0.078125 21.164062 0.0195312 20.871094 0.0234375 L 3.113281 0.0234375 C 1.394531 0.03125 0 1.992188 0 4.40625 L 0 19.59375 C 0.00390625 22.011719 1.398438 23.972656 3.121094 23.976562 L 20.875 23.976562 C 22.601562 23.980469 24.003906 22.015625 24.003906 19.59375 L 24.003906 4.40625 C 24.003906 2.453125 23.078125 0.734375 21.738281 0.195312 Z M 15.699219 11.972656 C 15.699219 11.976562 15.699219 11.984375 15.699219 11.988281 C 15.699219 11.992188 15.699219 11.996094 15.699219 12.003906 C 15.695312 12.027344 15.6875 12.050781 15.679688 12.074219 C 15.667969 12.105469 15.648438 12.132812 15.628906 12.15625 C 15.621094 12.167969 15.609375 12.179688 15.597656 12.1875 L 8.613281 17.972656 C 8.582031 18 8.546875 18.011719 8.507812 18.011719 L 8.472656 18.011719 C 8.460938 18.015625 8.449219 18.015625 8.4375 18.011719 C 8.421875 18.007812 8.410156 18 8.398438 17.992188 C 8.328125 17.9375 8.285156 17.832031 8.285156 17.722656 L 8.285156 6.179688 C 8.285156 6.148438 8.292969 6.117188 8.300781 6.085938 L 8.300781 6.070312 C 8.3125 6.03125 8.332031 5.996094 8.355469 5.964844 L 8.382812 5.933594 C 8.441406 5.886719 8.507812 5.878906 8.570312 5.914062 L 8.605469 5.933594 L 15.585938 11.703125 C 15.605469 11.71875 15.621094 11.738281 15.636719 11.757812 C 15.644531 11.773438 15.65625 11.792969 15.664062 11.8125 C 15.671875 11.832031 15.675781 11.855469 15.679688 11.878906 C 15.679688 11.878906 15.679688 11.902344 15.679688 11.914062 C 15.683594 11.929688 15.683594 11.945312 15.679688 11.957031 C 15.679688 11.957031 15.679688 11.980469 15.679688 11.992188 C 15.6875 11.988281 15.695312 11.980469 15.699219 11.972656 Z M 15.699219 11.972656 "/>
<path style=" stroke:none;fill-rule:nonzero;fill:rgb(100%,100%,100%);fill-opacity:1;" d="M 15.703125 11.925781 C 15.703125 11.914062 15.703125 11.898438 15.703125 11.882812 C 15.703125 11.882812 15.703125 11.855469 15.703125 11.847656 C 15.699219 11.824219 15.695312 11.800781 15.683594 11.78125 C 15.675781 11.757812 15.664062 11.738281 15.652344 11.71875 C 15.636719 11.699219 15.621094 11.679688 15.605469 11.667969 L 8.613281 5.878906 C 8.542969 5.824219 8.460938 5.824219 8.390625 5.878906 C 8.378906 5.890625 8.367188 5.902344 8.359375 5.914062 C 8.335938 5.945312 8.316406 5.980469 8.300781 6.019531 C 8.300781 6.019531 8.300781 6.035156 8.300781 6.046875 C 8.292969 6.074219 8.289062 6.105469 8.289062 6.140625 C 8.289062 6.144531 8.289062 6.148438 8.289062 6.152344 L 8.289062 17.691406 C 8.289062 17.800781 8.332031 17.90625 8.398438 17.960938 C 8.414062 17.96875 8.425781 17.976562 8.4375 17.980469 C 8.449219 17.984375 8.460938 17.984375 8.472656 17.980469 L 8.511719 17.980469 C 8.546875 17.980469 8.582031 17.96875 8.613281 17.941406 L 15.59375 12.171875 C 15.605469 12.160156 15.617188 12.152344 15.628906 12.136719 C 15.648438 12.113281 15.664062 12.085938 15.679688 12.054688 C 15.6875 12.035156 15.695312 12.011719 15.699219 11.984375 C 15.699219 11.980469 15.699219 11.976562 15.699219 11.972656 C 15.699219 11.964844 15.699219 11.960938 15.699219 11.957031 C 15.699219 11.949219 15.699219 11.945312 15.699219 11.941406 C 15.699219 11.941406 15.699219 11.917969 15.699219 11.90625 Z M 15.703125 11.925781 "/>
</g>
</svg>
